ffmpeg started on 2025-05-05 at 10:40:30
Report written to "D:\Convert\FFMetrics\reports\psnr_report-6.txt"
Log level: 32
Command line:
ffmpeg -hide_banner -nostdin -i "G:\\\xc0\xed\xe8\xec\xe5\\\xce\xed\xe3\xee\xe8\xed\xe3\xe8\\!_35_\xcb\xe5\xf2\xee_2024\\JamClub-1\\\xcb\xfe\xe4\xe8 \xef\xee\xe4\xe7\xe5\xec\xe5\xeb\xfc\xff\\JamClub_Dungeon_no_Naka_no_Hito_10_1080p_HEVC.mkv" -i "G:\\\xc0\xed\xe8\xec\xe5\\\xce\xed\xe3\xee\xe8\xed\xe3\xe8\\!_35_\xcb\xe5\xf2\xee_2024\\JamClub-1\\\xcb\xfe\xe4\xe8 \xef\xee\xe4\xe7\xe5\xec\xe5\xeb\xfc\xff\\JamClub_Dungeon_no_Naka_no_Hito_10_1080p.mp4" -lavfi "[0:v]settb=AVTB,setpts=PTS-STARTPTS,format=pix_fmts=yuv420p10,fps=24000/1001,scale=1920:1080:flags=bicubic[main];[1:v]settb=AVTB,setpts=PTS-STARTPTS,format=pix_fmts=yuv420p,fps=24000/1001,scale=1920:1080:flags=bicubic[ref];[main][ref]psnr=eof_action=endall:stats_file='D\\:/Convert/FFMetrics/logs/psnr_logfile-6.txt'" -f null -
Input #0, matroska,webm, from 'G:\Аниме\Онгоинги\!_35_Лето_2024\JamClub-1\Люди подземелья\JamClub_Dungeon_no_Naka_no_Hito_10_1080p_HEVC.mkv':
  Metadata:
    COMPATIBLE_BRANDS: isomiso2avc1mp41
    MAJOR_BRAND     : isom
    MINOR_VERSION   : 512
    ENCODER         : Lavf61.7.100
  Duration: 00:24:36.70, start: -0.021000, bitrate: 1124 kb/s
  Stream #0:0: Video: hevc (Main 10), yuv420p10le(tv, bt709, progressive), 1920x1080 [SAR 1:1 DAR 16:9], 23.98 fps, 23.98 tbr, 1k tbn (default)
      Metadata:
        HANDLER_NAME    : VideoHandler
        VENDOR_ID       : [0][0][0][0]
        ENCODER         : Lavc61.19.100 libx265
        BPS             : 927203
        DURATION        : 00:24:36.599708333
        NUMBER_OF_FRAMES: 35403
        NUMBER_OF_BYTES : 171138457
        _STATISTICS_WRITING_APP: mkvpropedit v66.0.0 ('Josie') 64-bit
        _STATISTICS_WRITING_DATE_UTC: 2025-05-04 14:35:39
        _STATISTICS_TAGS: BPS DURATION NUMBER_OF_FRAMES NUMBER_OF_BYTES
  Stream #0:1(eng): Audio: aac (LC), 48000 Hz, stereo, fltp (default)
      Metadata:
        HANDLER_NAME    : SoundHandler
        VENDOR_ID       : [0][0][0][0]
        ENCODER         : Lavc61.19.100 aac
        BPS             : 193276
        DURATION        : 00:24:36.675000000
        NUMBER_OF_FRAMES: 69220
        NUMBER_OF_BYTES : 35675783
        _STATISTICS_WRITING_APP: mkvpropedit v66.0.0 ('Josie') 64-bit
        _STATISTICS_WRITING_DATE_UTC: 2025-05-04 14:35:39
        _STATISTICS_TAGS: BPS DURATION NUMBER_OF_FRAMES NUMBER_OF_BYTES
Input #1, mov,mp4,m4a,3gp,3g2,mj2, from 'G:\Аниме\Онгоинги\!_35_Лето_2024\JamClub-1\Люди подземелья\JamClub_Dungeon_no_Naka_no_Hito_10_1080p.mp4':
  Metadata:
    major_brand     : isom
    minor_version   : 512
    compatible_brands: isomiso2avc1mp41
    encoder         : Lavf60.16.100
  Duration: 00:24:36.68, start: 0.000000, bitrate: 4145 kb/s
  Stream #1:0[0x1](und): Video: h264 (High) (avc1 / 0x31637661), yuv420p(tv, bt709, progressive), 1920x1080 [SAR 1:1 DAR 16:9], 3947 kb/s, 23.98 fps, 23.98 tbr, 90k tbn (default)
      Metadata:
        handler_name    : VideoHandler
        vendor_id       : [0][0][0][0]
  Stream #1:1[0x2](eng): Audio: aac (LC) (mp4a / 0x6134706D), 48000 Hz, stereo, fltp, 191 kb/s (default)
      Metadata:
        handler_name    : SoundHandler
        vendor_id       : [0][0][0][0]
Stream mapping:
  Stream #0:0 (hevc) -> settb:default
  Stream #1:0 (h264) -> settb:default
  psnr:default -> Stream #0:0 (wrapped_avframe)
  Stream #0:1 -> #0:1 (aac (native) -> pcm_s16le (native))
Output #0, null, to 'pipe:':
  Metadata:
    COMPATIBLE_BRANDS: isomiso2avc1mp41
    MAJOR_BRAND     : isom
    MINOR_VERSION   : 512
    encoder         : Lavf61.7.100
  Stream #0:0: Video: wrapped_avframe, yuv420p10le(tv, bt709, progressive), 1920x1080 [SAR 1:1 DAR 16:9], q=2-31, 200 kb/s, 23.98 fps, 23.98 tbn
      Metadata:
        encoder         : Lavc61.19.100 wrapped_avframe
  Stream #0:1(eng): Audio: pcm_s16le, 48000 Hz, stereo, s16, 1536 kb/s (default)
      Metadata:
        HANDLER_NAME    : SoundHandler
        VENDOR_ID       : [0][0][0][0]
        _STATISTICS_TAGS: BPS DURATION NUMBER_OF_FRAMES NUMBER_OF_BYTES
        BPS             : 193276
        DURATION        : 00:24:36.675000000
        NUMBER_OF_FRAMES: 69220
        NUMBER_OF_BYTES : 35675783
        _STATISTICS_WRITING_APP: mkvpropedit v66.0.0 ('Josie') 64-bit
        _STATISTICS_WRITING_DATE_UTC: 2025-05-04 14:35:39
        encoder         : Lavc61.19.100 pcm_s16le
frame=  117 fps=0.0 q=-0.0 size=N/A time=00:00:04.87 bitrate=N/A speed=9.53x    frame=  275 fps=269 q=-0.0 size=N/A time=00:00:11.46 bitrate=N/A speed=11.2x    frame=  476 fps=308 q=-0.0 size=N/A time=00:00:19.85 bitrate=N/A speed=12.9x    frame=  741 fps=358 q=-0.0 size=N/A time=00:00:30.90 bitrate=N/A speed=  15x    frame=  971 fps=376 q=-0.0 size=N/A time=00:00:40.49 bitrate=N/A speed=15.7x    frame= 1202 fps=389 q=-0.0 size=N/A time=00:00:50.13 bitrate=N/A speed=16.2x    frame= 1482 fps=410 q=-0.0 size=N/A time=00:01:01.81 bitrate=N/A speed=17.1x    frame= 1746 fps=424 q=-0.0 size=N/A time=00:01:12.82 bitrate=N/A speed=17.7x    frame= 1977 fps=426 q=-0.0 size=N/A time=00:01:22.45 bitrate=N/A speed=17.8x    frame= 2239 fps=435 q=-0.0 size=N/A time=00:01:33.38 bitrate=N/A speed=18.1x    frame= 2494 fps=440 q=-0.0 size=N/A time=00:01:44.02 bitrate=N/A speed=18.3x    frame= 2719 fps=440 q=-0.0 size=N/A time=00:01:53.44 bitrate=N/A speed=18.4x    frame= 2934 fps=438 q=-0.0 size=N/A time=00:02:02.37 bitrate=N/A speed=18.3x    frame= 3142 fps=436 q=-0.0 size=N/A time=00:02:11.04 bitrate=N/A speed=18.2x    frame= 3337 fps=432 q=-0.0 size=N/A time=00:02:19.18 bitrate=N/A speed=  18x    frame= 3568 fps=432 q=-0.0 size=N/A time=00:02:28.81 bitrate=N/A speed=  18x    frame= 3786 fps=431 q=-0.0 size=N/A time=00:02:37.90 bitrate=N/A speed=  18x    frame= 3984 fps=429 q=-0.0 size=N/A time=00:02:46.16 bitrate=N/A speed=17.9x    frame= 4140 fps=422 q=-0.0 size=N/A time=00:02:52.67 bitrate=N/A speed=17.6x    frame= 4327 fps=419 q=-0.0 size=N/A time=00:03:00.47 bitrate=N/A speed=17.5x    frame= 4554 fps=420 q=-0.0 size=N/A time=00:03:09.93 bitrate=N/A speed=17.5x    frame= 4798 fps=423 q=-0.0 size=N/A time=00:03:20.11 bitrate=N/A speed=17.6x    frame= 5080 fps=428 q=-0.0 size=N/A time=00:03:31.87 bitrate=N/A speed=17.8x    frame= 5352 fps=432 q=-0.0 size=N/A time=00:03:43.22 bitrate=N/A speed=  18x    frame= 5612 fps=435 q=-0.0 size=N/A time=00:03:54.06 bitrate=N/A speed=18.1x    frame= 5879 fps=438 q=-0.0 size=N/A time=00:04:05.20 bitrate=N/A speed=18.3x    frame= 6138 fps=441 q=-0.0 size=N/A time=00:04:16.00 bitrate=N/A speed=18.4x    frame= 6393 fps=442 q=-0.0 size=N/A time=00:04:26.64 bitrate=N/A speed=18.4x    frame= 6659 fps=445 q=-0.0 size=N/A time=00:04:37.73 bitrate=N/A speed=18.6x    frame= 6920 fps=447 q=-0.0 size=N/A time=00:04:48.62 bitrate=N/A speed=18.6x    frame= 7186 fps=449 q=-0.0 size=N/A time=00:04:59.71 bitrate=N/A speed=18.7x    frame= 7467 fps=452 q=-0.0 size=N/A time=00:05:11.43 bitrate=N/A speed=18.9x    frame= 7729 fps=454 q=-0.0 size=N/A time=00:05:22.36 bitrate=N/A speed=18.9x    frame= 7990 fps=455 q=-0.0 size=N/A time=00:05:33.24 bitrate=N/A speed=  19x    frame= 8240 fps=456 q=-0.0 size=N/A time=00:05:43.67 bitrate=N/A speed=  19x    frame= 8479 fps=456 q=-0.0 size=N/A time=00:05:53.64 bitrate=N/A speed=  19x    frame= 8735 fps=458 q=-0.0 size=N/A time=00:06:04.32 bitrate=N/A speed=19.1x    frame= 9004 fps=459 q=-0.0 size=N/A time=00:06:15.54 bitrate=N/A speed=19.2x    frame= 9278 fps=461 q=-0.0 size=N/A time=00:06:26.96 bitrate=N/A speed=19.2x    frame= 9547 fps=463 q=-0.0 size=N/A time=00:06:38.18 bitrate=N/A speed=19.3x    frame= 9804 fps=464 q=-0.0 size=N/A time=00:06:48.90 bitrate=N/A speed=19.3x    frame=10071 fps=465 q=-0.0 size=N/A time=00:07:00.04 bitrate=N/A speed=19.4x    frame=10347 fps=466 q=-0.0 size=N/A time=00:07:11.55 bitrate=N/A speed=19.4x    frame=10623 fps=468 q=-0.0 size=N/A time=00:07:23.06 bitrate=N/A speed=19.5x    frame=10882 fps=469 q=-0.0 size=N/A time=00:07:33.87 bitrate=N/A speed=19.5x    frame=11151 fps=470 q=-0.0 size=N/A time=00:07:45.08 bitrate=N/A speed=19.6x    frame=11391 fps=470 q=-0.0 size=N/A time=00:07:55.09 bitrate=N/A speed=19.6x    frame=11657 fps=471 q=-0.0 size=N/A time=00:08:06.19 bitrate=N/A speed=19.6x    frame=11929 fps=471 q=-0.0 size=N/A time=00:08:17.53 bitrate=N/A speed=19.7x    frame=12194 fps=472 q=-0.0 size=N/A time=00:08:28.59 bitrate=N/A speed=19.7x    frame=12457 fps=473 q=-0.0 size=N/A time=00:08:39.56 bitrate=N/A speed=19.7x    frame=12734 fps=474 q=-0.0 size=N/A time=00:08:51.11 bitrate=N/A speed=19.8x    frame=12987 fps=475 q=-0.0 size=N/A time=00:09:01.66 bitrate=N/A speed=19.8x    frame=13262 fps=476 q=-0.0 size=N/A time=00:09:13.13 bitrate=N/A speed=19.8x    frame=13527 fps=476 q=-0.0 size=N/A time=00:09:24.18 bitrate=N/A speed=19.9x    frame=13787 fps=477 q=-0.0 size=N/A time=00:09:35.03 bitrate=N/A speed=19.9x    frame=14038 fps=477 q=-0.0 size=N/A time=00:09:45.50 bitrate=N/A speed=19.9x    frame=14263 fps=476 q=-0.0 size=N/A time=00:09:54.88 bitrate=N/A speed=19.9x    frame=14533 fps=477 q=-0.0 size=N/A time=00:10:06.14 bitrate=N/A speed=19.9x    frame=14795 fps=478 q=-0.0 size=N/A time=00:10:17.07 bitrate=N/A speed=19.9x    frame=15025 fps=477 q=-0.0 size=N/A time=00:10:26.66 bitrate=N/A speed=19.9x    frame=15269 fps=477 q=-0.0 size=N/A time=00:10:36.84 bitrate=N/A speed=19.9x    frame=15505 fps=476 q=-0.0 size=N/A time=00:10:46.68 bitrate=N/A speed=19.9x    frame=15708 fps=475 q=-0.0 size=N/A time=00:10:55.15 bitrate=N/A speed=19.8x    frame=15971 fps=476 q=-0.0 size=N/A time=00:11:06.12 bitrate=N/A speed=19.8x    frame=16221 fps=476 q=-0.0 size=N/A time=00:11:16.55 bitrate=N/A speed=19.8x    frame=16486 fps=476 q=-0.0 size=N/A time=00:11:27.60 bitrate=N/A speed=19.9x    frame=16737 fps=477 q=-0.0 size=N/A time=00:11:38.07 bitrate=N/A speed=19.9x    frame=16987 fps=477 q=-0.0 size=N/A time=00:11:48.49 bitrate=N/A speed=19.9x    frame=17229 fps=477 q=-0.0 size=N/A time=00:11:58.59 bitrate=N/A speed=19.9x    frame=17471 fps=476 q=-0.0 size=N/A time=00:12:08.68 bitrate=N/A speed=19.9x    frame=17712 fps=476 q=-0.0 size=N/A time=00:12:18.73 bitrate=N/A speed=19.9x    frame=17981 fps=477 q=-0.0 size=N/A time=00:12:29.95 bitrate=N/A speed=19.9x    frame=18237 fps=477 q=-0.0 size=N/A time=00:12:40.63 bitrate=N/A speed=19.9x    frame=18505 fps=478 q=-0.0 size=N/A time=00:12:51.81 bitrate=N/A speed=19.9x    frame=18740 fps=478 q=-0.0 size=N/A time=00:13:01.61 bitrate=N/A speed=19.9x    frame=18986 fps=477 q=-0.0 size=N/A time=00:13:11.87 bitrate=N/A speed=19.9x    frame=19261 fps=478 q=-0.0 size=N/A time=00:13:23.34 bitrate=N/A speed=19.9x    frame=19544 fps=479 q=-0.0 size=N/A time=00:13:35.14 bitrate=N/A speed=  20x    frame=19806 fps=480 q=-0.0 size=N/A time=00:13:46.07 bitrate=N/A speed=  20x    frame=20085 fps=480 q=-0.0 size=N/A time=00:13:57.71 bitrate=N/A speed=  20x    frame=20313 fps=480 q=-0.0 size=N/A time=00:14:07.22 bitrate=N/A speed=  20x    frame=20553 fps=480 q=-0.0 size=N/A time=00:14:17.23 bitrate=N/A speed=  20x    frame=20827 fps=480 q=-0.0 size=N/A time=00:14:28.65 bitrate=N/A speed=  20x    frame=21106 fps=481 q=-0.0 size=N/A time=00:14:40.29 bitrate=N/A speed=20.1x    frame=21348 fps=481 q=-0.0 size=N/A time=00:14:50.38 bitrate=N/A speed=20.1x    frame=21616 fps=481 q=-0.0 size=N/A time=00:15:01.60 bitrate=N/A speed=20.1x    frame=21892 fps=482 q=-0.0 size=N/A time=00:15:13.07 bitrate=N/A speed=20.1x    frame=22153 fps=482 q=-0.0 size=N/A time=00:15:23.96 bitrate=N/A speed=20.1x    frame=22412 fps=482 q=-0.0 size=N/A time=00:15:34.76 bitrate=N/A speed=20.1x    frame=22662 fps=482 q=-0.0 size=N/A time=00:15:45.19 bitrate=N/A speed=20.1x    frame=22916 fps=482 q=-0.0 size=N/A time=00:15:55.78 bitrate=N/A speed=20.1x    frame=23189 fps=483 q=-0.0 size=N/A time=00:16:07.17 bitrate=N/A speed=20.1x    frame=23461 fps=483 q=-0.0 size=N/A time=00:16:18.51 bitrate=N/A speed=20.2x    frame=23709 fps=483 q=-0.0 size=N/A time=00:16:28.86 bitrate=N/A speed=20.2x    frame=23953 fps=483 q=-0.0 size=N/A time=00:16:39.03 bitrate=N/A speed=20.2x    frame=24221 fps=484 q=-0.0 size=N/A time=00:16:50.21 bitrate=N/A speed=20.2x    frame=24491 fps=484 q=-0.0 size=N/A time=00:17:01.47 bitrate=N/A speed=20.2x    frame=24731 fps=484 q=-0.0 size=N/A time=00:17:11.48 bitrate=N/A speed=20.2x    frame=24967 fps=484 q=-0.0 size=N/A time=00:17:21.33 bitrate=N/A speed=20.2x    frame=25228 fps=484 q=-0.0 size=N/A time=00:17:32.21 bitrate=N/A speed=20.2x    frame=25483 fps=484 q=-0.0 size=N/A time=00:17:42.85 bitrate=N/A speed=20.2x    frame=25725 fps=484 q=-0.0 size=N/A time=00:17:52.94 bitrate=N/A speed=20.2x    frame=25984 fps=484 q=-0.0 size=N/A time=00:18:03.74 bitrate=N/A speed=20.2x    frame=26191 fps=483 q=-0.0 size=N/A time=00:18:12.38 bitrate=N/A speed=20.2x    frame=26457 fps=484 q=-0.0 size=N/A time=00:18:23.47 bitrate=N/A speed=20.2x    frame=26683 fps=483 q=-0.0 size=N/A time=00:18:32.90 bitrate=N/A speed=20.1x    frame=26935 fps=483 q=-0.0 size=N/A time=00:18:43.41 bitrate=N/A speed=20.2x    frame=27207 fps=484 q=-0.0 size=N/A time=00:18:54.75 bitrate=N/A speed=20.2x    frame=27455 fps=484 q=-0.0 size=N/A time=00:19:05.10 bitrate=N/A speed=20.2x    frame=27720 fps=484 q=-0.0 size=N/A time=00:19:16.15 bitrate=N/A speed=20.2x    frame=27962 fps=484 q=-0.0 size=N/A time=00:19:26.24 bitrate=N/A speed=20.2x    frame=28207 fps=484 q=-0.0 size=N/A time=00:19:36.46 bitrate=N/A speed=20.2x    frame=28466 fps=484 q=-0.0 size=N/A time=00:19:47.26 bitrate=N/A speed=20.2x    frame=28718 fps=484 q=-0.0 size=N/A time=00:19:57.77 bitrate=N/A speed=20.2x    frame=28953 fps=484 q=-0.0 size=N/A time=00:20:07.58 bitrate=N/A speed=20.2x    frame=29220 fps=484 q=-0.0 size=N/A time=00:20:18.71 bitrate=N/A speed=20.2x    frame=29443 fps=483 q=-0.0 size=N/A time=00:20:28.01 bitrate=N/A speed=20.2x    frame=29695 fps=483 q=-0.0 size=N/A time=00:20:38.52 bitrate=N/A speed=20.2x    frame=29952 fps=484 q=-0.0 size=N/A time=00:20:49.24 bitrate=N/A speed=20.2x    frame=30173 fps=483 q=-0.0 size=N/A time=00:20:58.46 bitrate=N/A speed=20.2x    frame=30417 fps=483 q=-0.0 size=N/A time=00:21:08.64 bitrate=N/A speed=20.1x    frame=30596 fps=482 q=-0.0 size=N/A time=00:21:16.10 bitrate=N/A speed=20.1x    frame=30839 fps=482 q=-0.0 size=N/A time=00:21:26.24 bitrate=N/A speed=20.1x    frame=31125 fps=482 q=-0.0 size=N/A time=00:21:38.17 bitrate=N/A speed=20.1x    frame=31397 fps=483 q=-0.0 size=N/A time=00:21:49.51 bitrate=N/A speed=20.1x    frame=31632 fps=483 q=-0.0 size=N/A time=00:21:59.31 bitrate=N/A speed=20.1x    frame=31832 fps=482 q=-0.0 size=N/A time=00:22:07.65 bitrate=N/A speed=20.1x    frame=32092 fps=482 q=-0.0 size=N/A time=00:22:18.50 bitrate=N/A speed=20.1x    frame=32306 fps=482 q=-0.0 size=N/A time=00:22:27.42 bitrate=N/A speed=20.1x    frame=32562 fps=482 q=-0.0 size=N/A time=00:22:38.10 bitrate=N/A speed=20.1x    frame=32818 fps=482 q=-0.0 size=N/A time=00:22:48.78 bitrate=N/A speed=20.1x    frame=33071 fps=482 q=-0.0 size=N/A time=00:22:59.33 bitrate=N/A speed=20.1x    frame=33315 fps=482 q=-0.0 size=N/A time=00:23:09.51 bitrate=N/A speed=20.1x    frame=33469 fps=480 q=-0.0 size=N/A time=00:23:15.93 bitrate=N/A speed=  20x    frame=33620 fps=479 q=-0.0 size=N/A time=00:23:22.23 bitrate=N/A speed=  20x    frame=33791 fps=478 q=-0.0 size=N/A time=00:23:29.36 bitrate=N/A speed=19.9x    frame=33962 fps=477 q=-0.0 size=N/A time=00:23:36.49 bitrate=N/A speed=19.9x    frame=34136 fps=476 q=-0.0 size=N/A time=00:23:43.75 bitrate=N/A speed=19.8x    frame=34290 fps=475 q=-0.0 size=N/A time=00:23:50.17 bitrate=N/A speed=19.8x    frame=34476 fps=474 q=-0.0 size=N/A time=00:23:57.93 bitrate=N/A speed=19.8x    frame=34608 fps=472 q=-0.0 size=N/A time=00:24:03.44 bitrate=N/A speed=19.7x    frame=34775 fps=471 q=-0.0 size=N/A time=00:24:10.40 bitrate=N/A speed=19.7x    frame=34963 fps=471 q=-0.0 size=N/A time=00:24:18.24 bitrate=N/A speed=19.6x    frame=35198 fps=470 q=-0.0 size=N/A time=00:24:28.04 bitrate=N/A speed=19.6x    [Parsed_psnr_10 @ 000001c9b140c480] PSNR y:48.492651 u:50.472797 v:50.795955 average:49.095591 min:37.690439 max:inf
[out#0/null @ 000001c9b0ce0f40] video:15212KiB audio:276880KiB subtitle:0KiB other streams:0KiB global headers:0KiB muxing overhead: unknown
frame=35403 fps=470 q=-0.0 Lsize=N/A time=00:24:36.60 bitrate=N/A speed=19.6x    
